<svg class="svg-icon" style="width: 1em; height: 1em;vertical-align: middle;fill: currentColor;overflow: hidden;" viewBox="0 0 1024 1024" version="1.1" xmlns="http://www.w3.org/2000/svg"><path d="M276.686 216.242v169.394h15.392v-154.002h430.714v274.094h15.392V216.242z" fill="#4A555F" /><path d="M544.482 252.224v71.474l-19.702-20.576-17.394 20.576-17.958-20.576-19.036 20.576v-71.474h-157.726v155.688l148.952 77.58c29.194 15.188 47.358 45.048 47.358 77.938 0 10.108-1.692 19.908-4.926 29.092h59.262a263.48 263.48 0 0 0 22.37-9.954l1.538-0.718 114.984-48.436V252.224h-157.722z" fill="#F58E6F" /><path d="M462.702 216.242v116.494l26.568-25.194 18.27 18.284 17.58-18.278 27.048 24.768v-116.072h-89.466z m74.072 81.106l-12.336-11.298-17.11 17.788-17.768-17.784-11.468 10.874v-65.294h58.68v65.714zM1017.582 495.782c-16.086-35.63-56.942-51.65-93.008-36.458l-330.858 139.282c-52.956 26.556-101.42 31.166-140.63 27.024a70.866 70.866 0 0 0 5.302-3.042c20.424-12.898 32.618-35.004 32.618-59.13 0-26.17-14.44-49.946-37.688-62.052l-237.12-123.466H0v15.392h212.43l233.776 121.72c18.138 9.45 29.404 27.996 29.404 48.404 0 18.816-9.512 36.056-25.444 46.118-12.71 8.028-27.796 10.422-42.014 6.99-0.962-0.292-1.904-0.582-2.844-0.876a746.624 746.624 0 0 1-28.784-12.858l-180.59-85.894-6.61 13.9 179.06 85.166c0.52 0.25 1.04 0.496 1.556 0.736l20.792 9.892a71.18 71.18 0 0 0 13.46 4.816c46.15 13.824 116.53 20.98 195.958-18.866l330.394-139.066c28.326-11.916 60.384 0.646 73.006 28.6 12.552 27.798 0.86 60.028-26.62 73.366l-385 186.938a291.44 291.44 0 0 1-242.958 5.432L26.764 628.826H0v15.392h23.584l319.29 137.764a306.886 306.886 0 0 0 121.666 25.154 307.012 307.012 0 0 0 134.114-30.866l385-186.938c35.032-17.006 49.934-58.1 33.928-93.55z" fill="#4A555F" /><path d="M987.184 509.506c-6.316-13.99-20.388-22.398-35.012-22.398-4.916 0-9.894 0.952-14.658 2.956L607.888 628.8c-47.126 23.48-91.192 31.538-129.484 31.542-30.36 0-57.084-5.066-78.834-11.536a89.37 89.37 0 0 1-16.55-5.958l-20.75-9.87-1.598-0.756-174.202-82.856-4.86-2.31 22.036-46.338 5.296 2.52 175.302 83.378a738.06 738.06 0 0 0 27.23 12.186c0.558 0.17 1.118 0.346 1.684 0.516 2.594 0.576 5.212 0.862 7.822 0.862 6.78 0 13.5-1.938 19.592-5.788 10.854-6.854 17.078-18.134 17.078-30.94 0-13.684-7.564-26.126-19.742-32.47l-229.876-119.694H0v199.58h30.476l4.866 2.1 320.748 138.39a273.682 273.682 0 0 0 108.456 22.422c40.938 0 81.814-9.194 119.542-27.514l385-186.938c18.67-9.064 26.62-30.946 18.096-49.822z" fill="#DFDFDF" /><path d="M493.762 25.554C307.4 30.796 138.082 144.348 62.406 314.84l14.07 6.244C149.76 155.98 313.724 46.016 494.194 40.942 699.56 35.052 883.526 161.36 951.884 354.952l14.516-5.12C895.808 149.91 705.78 19.564 493.762 25.554zM372.364 979.654c5.006 1.442 10.052 2.81 15.124 4.098l3.788-14.922a459.28 459.28 0 0 1-14.638-3.968l-4.274 14.792z m30.388 7.706c5.086 1.118 10.206 2.154 15.358 3.112l2.812-15.132a478.38 478.38 0 0 1-14.874-3.012l-3.296 15.032z m-60.186-17.368c4.9 1.77 9.844 3.458 14.816 5.072l4.75-14.642a480.6 480.6 0 0 1-14.35-4.91l-5.216 14.48z m-29.108-11.564a472.8 472.8 0 0 0 14.458 6.018l5.682-14.3a474.556 474.556 0 0 1-13.992-5.828l-6.148 14.11z m-28.292-13.418a476.232 476.232 0 0 0 14.036 6.944l6.6-13.91a467.75 467.75 0 0 1-13.584-6.714l-7.052 13.68z m222.02 38.24c-3.672 0-7.338-0.044-10.996-0.13l-0.35 15.394c3.772 0.084 7.554 0.13 11.346 0.13l4.274-0.014-0.11-15.394-4.164 0.014z m-73.616 9.832a480.2 480.2 0 0 0 15.496 2.11l1.83-15.284a467.04 467.04 0 0 1-15-2.04l-2.326 15.214z m31.048 3.712c5.176 0.456 10.38 0.826 15.6 1.112l0.84-15.374a469.766 469.766 0 0 1-15.098-1.072l-1.342 15.334z m-206.81-66.992a471.41 471.41 0 0 0 13.562 7.832l7.476-13.458a448.812 448.812 0 0 1-13.12-7.572l-7.918 13.198z m-126.516-133.856l-12.28 9.28a484.63 484.63 0 0 0 9.624 12.316l11.976-9.67a467.606 467.606 0 0 1-9.32-11.926z m-17.472-24.712l-12.848 8.478a484.23 484.23 0 0 0 8.816 12.902l12.566-8.888a467.666 467.666 0 0 1-8.534-12.492z m412.658 211.636l0.632 15.382a519.58 519.58 0 0 0 15.58-0.876l-1.102-15.352c-5.016 0.36-10.052 0.64-15.11 0.846zM97.976 745.464l-13.368 7.632a484.228 484.228 0 0 0 7.97 13.438l13.112-8.058a469.216 469.216 0 0 1-7.714-13.012z m61.836 107.088a484.216 484.216 0 0 0 11.122 10.988l10.642-11.114a474.148 474.148 0 0 1-10.766-10.648l-10.998 10.774z m71.684 60.324a464.44 464.44 0 0 0 13.026 8.678l8.322-12.948a459.516 459.516 0 0 1-12.604-8.398l-8.744 12.668z m-25.176-18.576a467.38 467.38 0 0 0 12.444 9.496l9.134-12.386a462.554 462.554 0 0 1-12.038-9.184l-9.54 12.074z m-23.922-20.122a471.526 471.526 0 0 0 11.806 10.256l9.906-11.776a473.394 473.394 0 0 1-11.424-9.936l-10.288 11.456z m-32.088-54.692l-11.66 10.052a501.746 501.746 0 0 0 10.396 11.68l11.33-10.422a466.616 466.616 0 0 1-10.066-11.31z m654.308 58.286l9.716 11.934a490.776 490.776 0 0 0 11.966-10.056l-10.096-11.624a472.854 472.854 0 0 1-11.586 9.746zM556.666 980.7l1.604 15.312a505.52 505.52 0 0 0 15.518-1.868l-2.08-15.252c-4.99 0.682-10.002 1.282-15.042 1.808z m270.808-122.782l10.468 11.284a509.026 509.026 0 0 0 11.292-10.798l-10.812-10.954a478.252 478.252 0 0 1-10.948 10.468z m60.378-67.744l12.416 9.1a480.374 480.374 0 0 0 9.042-12.772l-12.708-8.69a458.784 458.784 0 0 1-8.75 12.362z m-38.83 46.474l11.164 10.592a491.246 491.246 0 0 0 10.582-11.5l-11.484-10.242a500.46 500.46 0 0 1-10.262 11.15z m102.506-166.596a466.134 466.134 0 0 1-5.318 14.206l14.326 5.632c1.906-4.856 3.74-9.746 5.494-14.676l-14.502-5.162z m-17.322 42.056l13.93 6.544c2.218-4.72 4.362-9.48 6.432-14.282l-14.134-6.092a472.448 472.448 0 0 1-6.228 13.83z m-29.244 53.068l12.978 8.278a486.54 486.54 0 0 0 8.206-13.328l-13.238-7.856a478.63 478.63 0 0 1-7.946 12.906z m15.476-26.06l13.484 7.426c2.516-4.564 4.96-9.18 7.334-13.83l-13.714-6.996a483.26 483.26 0 0 1-7.104 13.4z m-51.262 74.924l11.818 9.862c3.34-4 6.616-8.052 9.832-12.156l-12.122-9.49a482.368 482.368 0 0 1-9.528 11.784z m-223.604 148.636l4.514 14.712a494.612 494.612 0 0 0 14.826-4.796l-4.97-14.572a487.274 487.274 0 0 1-14.37 4.656z m134.974-66.57l8.934 12.536a492.752 492.752 0 0 0 12.578-9.27l-9.33-12.246a473.704 473.704 0 0 1-12.182 8.98z m-193.87 80.49l2.566 15.182a470.26 470.26 0 0 0 15.378-2.862l-3.062-15.082c-4.934 1-9.894 1.92-14.882 2.762z m87.474-23.684l5.446 14.4a495.292 495.292 0 0 0 14.498-5.752l-5.902-14.22a482.106 482.106 0 0 1-14.042 5.572z m-57.798 17.676l3.542 14.982a489.716 489.716 0 0 0 15.158-3.842l-4.024-14.862c-4.86 1.318-9.754 2.56-14.676 3.722z m139.006-57.732l8.108 13.088a490.92 490.92 0 0 0 13.144-8.442l-8.524-12.818a472.574 472.574 0 0 1-12.728 8.172z m-53.306 28.47l6.364 14.02a481.132 481.132 0 0 0 14.108-6.684l-6.814-13.8a470.652 470.652 0 0 1-13.658 6.464z m27.098-13.368l7.266 13.57a497.088 497.088 0 0 0 13.646-7.576l-7.686-13.338a490.928 490.928 0 0 1-13.226 7.344z" fill="#4A555F" /><path d="M976.136 286.12l-21.26 55.844-52.91-24.292-6.424 13.99 67.866 31.156 27.114-71.226zM71.978 713.976l-18.834 71.724 14.886 3.908 14.776-56.26 56.348 17.108 4.47-14.734z" fill="#4A555F" /></svg>